<svg xmlns="http://www.w3.org/2000/svg" viewBox="0 0 208.15 210.1">
    <defs>
    </defs>
    <title>Asset 3</title>
    <g id="Layer_2" data-name="Layer 2">
        <g id="Layer_1-2" data-name="Layer 1">
            <polygon class="cls-1" points="104.58 90.61 104.58 149.75 155.7 120.03 155.73 61.06 104.58 90.61" />
            <polygon class="cls-1"
                points="208.15 30.67 156.7 60.39 156.71 60.45 156.68 119.36 208.15 89.43 208.15 30.67" />
            <polygon class="cls-1" points="103.48 149.75 103.69 89.92 52.05 61.1 52.15 120.02 103.48 149.75" />
            <polygon class="cls-1"
                points="103.57 150.88 52.04 121.16 52.03 180.34 103.55 210.08 103.58 151.13 103.57 150.88" />
            <polygon class="cls-1" points="155.73 121.17 104.58 150.9 104.58 210.1 155.65 180.83 155.73 121.17" />
            <polygon class="cls-1" points="207.64 29.75 156.28 0.1 104.83 29.84 156.09 59.53 207.64 29.75" />
            <path class="cls-1" d="M104.08,30.27" />
            <path class="cls-1" d="M104.23,30" />
            <polygon class="cls-1" points="104.58 89.41 155.21 60.16 104.58 30.86 104.58 89.41" />
            <polygon class="cls-1"
                points="104.1 30.05 52.05 0 0 30.05 0 30.07 0 30.08 52.05 60.12 104.08 30.06 104.1 30.05" />
        </g>
    </g>
</svg>