<svg version="1.2" xmlns="http://www.w3.org/2000/svg" viewBox="0 0 451 479" width="451" height="479">
	<title>www.datajoint.com</title>
	<defs>
		<linearGradient id="g1" x1="0" y1="239.1" x2="1156.4" y2="239.1" gradientUnits="userSpaceOnUse">
			<stop offset="0" stop-color="#ffffff"/>
			<stop offset=".2" stop-color="#ffffff"/>
			<stop offset=".4" stop-color="#ffffff"/>
			<stop offset="1" stop-color="#ffffff"/>
		</linearGradient>
	</defs>
	<g id="Layer">
		<g id="Layer">
			<g id="Layer">
				<g id="Layer">
					<path id="Layer" class="s0" d="m436.7 96v82.7c8.3 1.9 14.4 9.5 14.4 18.2 0 10.3-8.4 18.7-18.7 18.7-5 0-9.8-2.1-13.3-5.6l-72.7 42q0.9 2.9 0.9 5.7c0 8.6-6 16.2-14.3 18.2v81.6c8.3 2 14.3 9.6 14.3 18.2 0 10.3-8.4 18.7-18.7 18.7-4.8 0-9.4-1.8-12.9-5.1l-82.4 47.6 24.6 41.4h-67.7l26.5-41.3-82.6-47.7c-3.4 3.2-8.1 5.1-12.8 5.1-10.3 0-18.7-8.4-18.7-18.7 0-8.5 5.9-16.1 14.2-18.1v-81.6c-8.2-2.1-14.2-9.7-14.2-18.2 0-8.5 5.9-16.1 14.2-18.1v-85.9c-8.2-2.1-14.2-9.7-14.2-18.2 0-0.8 0.1-1.7 0.2-2.5l-71.1-41.8c-3.5 3.3-8.2 5.2-13 5.2-10.3 0-18.7-8.4-18.7-18.7 0-10.4 8.4-18.7 18.7-18.7 4.9 0 9.6 2 13.1 5.4l71.4-41.2c-0.4-1.5-0.6-3-0.6-4.6 0-10.3 8.4-18.7 18.7-18.7 10.3 0 18.7 8.4 18.8 18.9 0 1.6-0.2 3.1-0.6 4.6l72.4 41.8c3.5-3.8 8.5-6 13.7-6 5 0 9.8 2 13.3 5.5l71.6-41.4c-0.4-1.5-0.6-3.1-0.6-4.6 0-10.3 8.4-18.7 18.7-18.7 10.3 0 18.7 8.4 18.7 18.7 0 1.6-0.2 3.1-0.6 4.6l72.1 41.6c3.5-3.8 8.5-5.9 13.6-5.9 10.3 0 18.7 8.4 18.7 18.7 0 8.6-6.1 16.2-14.4 18.2zm-315.6 20.9c5.8 0 11.1 2.6 14.7 7.1l71.6-41.3c-0.4-1.6-0.6-3.2-0.6-4.9q0-2.4 0.6-4.8l-72.3-41.8c-3.5 3.9-8.6 6.2-13.9 6.2-5.3 0-10.4-2.3-13.9-6.2l-70.9 40.9c0.6 1.8 0.9 3.7 0.9 5.6 0 2-0.3 4-0.9 5.9l69.7 41c3.5-4.9 9.2-7.8 15-7.7zm9.1 35.1c-1.3 0.8-2.8 1.3-4.3 1.7v86c3.2 0.8 6.1 2.4 8.5 4.7l77.9-45zm86.7 168.9l-84-48.5c-2.1 1.7-4.5 2.9-7.1 3.5v81.7c8.3 2 14.2 9.6 14.2 18.1 0 2.1-0.3 4.1-1 6l77.9 45zm0-113.7l-77.8 44.9q0.9 2.7 0.9 5.4l76.9 44.5zm3.5-111.5c-3.3-1-6.3-2.8-8.6-5.3l-72.2 41.7c0.2 1.1 0.3 2.3 0.3 3.4 0 1 0 2-0.2 3l80.7 46.6zm89.8 42.9c-0.2-1-0.3-2.1-0.3-3.1 0-1.1 0.1-2.3 0.3-3.4l-71.4-41.2c-2.6 2.5-5.9 4.3-9.4 5.1v89.3zm-77 68.8v94.5l76.6-44.3c0-1.9 0.3-3.8 0.9-5.5l-77.4-44.7zm90.9 150.2v-81.8c-2.6-0.6-4.9-1.8-7-3.4l-83.7 48.5v105.6l77.5-44.8c-0.7-1.9-1-3.9-1-6 0-8.5 5.9-16 14.1-18.1zm0-204c-1.5-0.3-2.9-0.9-4.3-1.6l-82 47.5 77.8 44.9c2.3-2.4 5.3-4 8.5-4.8zm19.2-29.7l71.2-41.1c-0.5-1.7-0.7-3.4-0.7-5.1 0-1.7 0.2-3.4 0.7-5l-71.9-41.5c-3.6 3.9-8.6 6.2-13.9 6.2-5.3 0-10.4-2.2-13.9-6.2l-71.3 41.1c0.5 1.8 0.8 3.6 0.8 5.5 0 1.8-0.3 3.6-0.8 5.4l70.5 40.7c3.5-4.5 8.8-7.1 14.6-7.1 5.7 0 11 2.6 14.7 7.1zm84.4-28c-3.4-0.9-6.4-2.7-8.8-5.2l-71.9 41.5c0.2 1.1 0.3 2.3 0.3 3.4 0 8.5-5.9 16.1-14.2 18.1v85.9c3.2 0.8 6.2 2.4 8.6 4.8l72.8-42c-0.5-1.7-0.8-3.6-0.8-5.4 0-8.4 5.9-16 14-18.1z"/>
				</g>
			</g>
		</g>
	</g>
</svg>